<svg xmlns="http://www.w3.org/2000/svg" width="480" height="280" viewBox="0 0 480 280" role="img" aria-label="Islander · Caribbean">
  <defs>
    <linearGradient id="g" x1="0" y1="0" x2="0" y2="1">
      <stop offset="0" stop-color="#1b9ae0"/>
      <stop offset="1" stop-color="#0f6fbf"/>
    </linearGradient>
  </defs>
  <rect width="480" height="280" fill="url(#g)"/>
  <circle cx="392" cy="60" r="30" fill="#ffe27a" opacity="0.9"/>
  <g fill="#ffffff">
    <path d="M0 210 q60 -22 120 0 t120 0 t120 0 t120 0 V280 H0 Z" opacity="0.35"/>
    <path d="M0 230 q60 -18 120 0 t120 0 t120 0 t120 0 V280 H0 Z" opacity="0.55"/>
  </g>
  <g transform="translate(240 132)" fill="#ffffff">
    <path d="M-84 8 h168 l-18 28 h-132 Z" opacity="0.97"/>
    <rect x="-54" y="-16" width="108" height="26" rx="3" opacity="0.97"/>
    <rect x="-34" y="-44" width="68" height="22" rx="3" opacity="0.92"/>
    <rect x="-4" y="-76" width="8" height="32"/>
    <path d="M4 -72 l30 11 l-30 11 Z"/>
  </g>
  <text x="240" y="200" text-anchor="middle" font-family="Helvetica, Arial, sans-serif" font-size="19" font-weight="700" fill="#ffffff">Islander · Caribbean</text>
</svg>
